<?xml version="1.0" encoding="UTF-8" standalone="no"?>
<!DOCTYPE svg PUBLIC "-//W3C//DTD SVG 1.1//EN" "http://www.w3.org/Graphics/SVG/1.1/DTD/svg11.dtd">
<svg xmlns="http://www.w3.org/2000/svg" version="1.1" viewBox="0.00 0.00 952.00 262.00">
<path fill="#d6b196" d="
  M 114.23 32.03
  L 31.68 122.14
  A 0.51 0.51 0.0 0 1 31.30 122.31
  L 9.01 122.24
  A 0.51 0.51 0.0 0 1 8.63 121.39
  L 114.22 5.35
  A 0.51 0.51 0.0 0 1 114.98 5.35
  L 220.57 121.42
  A 0.51 0.51 0.0 0 1 220.20 122.27
  L 197.81 122.26
  A 0.51 0.51 0.0 0 1 197.44 122.09
  L 114.99 32.03
  A 0.51 0.51 0.0 0 0 114.23 32.03
  Z"
/>
<path fill="#ffffff" d="
  M 610.07 117.78
  C 606.45 124.92 613.65 128.99 619.13 130.61
  C 632.49 134.57 645.17 139.50 641.64 156.52
  C 636.95 179.15 608.40 177.98 594.62 165.81
  A 1.05 1.04 36.8 0 1 594.42 164.47
  L 598.14 158.57
  A 3.16 3.15 33.6 0 1 602.64 157.67
  C 605.89 159.96 609.77 162.50 613.53 163.33
  C 618.97 164.55 626.98 163.63 629.06 157.29
  C 631.99 148.36 625.71 145.84 618.26 143.47
  C 606.51 139.72 596.24 136.36 596.93 121.50
  Q 597.19 115.90 600.23 111.43
  C 609.12 98.34 629.61 99.89 640.49 108.91
  Q 640.94 109.28 640.66 109.79
  L 637.03 116.44
  A 2.60 2.60 0.0 0 1 633.28 117.33
  C 627.19 113.15 614.53 108.97 610.07 117.78
  Z"
/>
<path fill="#ffffff" d="
  M 923.93 145.33
  C 910.69 140.30 895.53 139.12 897.21 120.03
  Q 897.68 114.60 901.27 110.25
  C 910.82 98.64 929.95 99.99 940.60 108.82
  A 0.86 0.86 0.0 0 1 940.81 109.89
  L 937.23 116.48
  A 2.52 2.52 0.0 0 1 933.62 117.37
  C 927.84 113.54 921.32 110.96 914.50 113.91
  C 906.40 117.40 908.62 126.95 916.24 129.47
  Q 922.88 131.66 929.44 134.06
  C 942.19 138.72 945.48 150.98 939.63 162.45
  C 931.10 179.16 907.15 176.83 894.64 165.61
  Q 894.20 165.21 894.52 164.70
  L 898.49 158.37
  A 2.93 2.93 0.0 0 1 902.68 157.55
  C 905.97 159.91 909.99 162.48 913.80 163.32
  C 918.95 164.45 926.18 163.70 928.82 158.50
  C 931.46 153.29 929.66 147.51 923.93 145.33
  Z"
/>
<path fill="#ffffff" d="
  M 552.99 113.72
  L 552.99 132.39
  A 0.48 0.48 0.0 0 0 553.47 132.87
  L 577.30 132.82
  A 0.48 0.48 0.0 0 1 577.78 133.30
  L 577.85 142.55
  A 0.48 0.48 0.0 0 1 577.37 143.03
  L 553.46 143.02
  A 0.48 0.48 0.0 0 0 552.98 143.50
  L 553.01 162.69
  A 0.48 0.48 0.0 0 0 553.49 163.17
  L 583.96 163.15
  A 0.48 0.48 0.0 0 1 584.44 163.63
  L 584.48 173.21
  A 0.48 0.48 0.0 0 1 584.00 173.69
  L 540.19 173.67
  A 0.48 0.48 0.0 0 1 539.71 173.19
  L 539.69 103.20
  A 0.48 0.48 0.0 0 1 540.17 102.72
  L 583.97 102.73
  A 0.48 0.48 0.0 0 1 584.45 103.21
  L 584.47 112.77
  A 0.48 0.48 0.0 0 1 583.99 113.25
  L 553.47 113.24
  A 0.48 0.48 0.0 0 0 552.99 113.72
  Z"
/>
<path fill="#ffffff" d="
  M 671.73 113.52
  L 651.18 113.52
  A 0.47 0.47 0.0 0 1 650.71 113.05
  L 650.74 103.20
  A 0.47 0.47 0.0 0 1 651.21 102.73
  L 706.32 102.73
  A 0.47 0.47 0.0 0 1 706.79 103.20
  L 706.86 113.04
  A 0.47 0.47 0.0 0 1 706.39 113.51
  L 685.76 113.51
  A 0.47 0.47 0.0 0 0 685.29 113.98
  L 685.29 173.21
  A 0.47 0.47 0.0 0 1 684.82 173.68
  L 672.65 173.70
  A 0.47 0.47 0.0 0 1 672.18 173.23
  L 672.20 113.99
  A 0.47 0.47 0.0 0 0 671.73 113.52
  Z"
/>
<path fill="#ffffff" d="
  M 752.98 156.21
  L 724.57 156.23
  A 0.66 0.66 0.0 0 0 723.95 156.66
  L 718.70 170.97
  A 4.16 4.15 10.1 0 1 714.78 173.70
  L 704.84 173.67
  Q 704.20 173.67 704.44 173.07
  L 731.95 103.27
  Q 732.16 102.73 732.74 102.73
  L 745.05 102.73
  Q 745.62 102.73 745.83 103.26
  L 773.28 173.00
  A 0.53 0.53 0.0 0 1 772.77 173.72
  Q 768.21 173.62 763.24 173.71
  Q 759.66 173.78 758.41 169.95
  Q 756.27 163.34 753.83 156.80
  Q 753.61 156.21 752.98 156.21
  Z
  M 728.14 146.88
  L 749.63 146.87
  A 0.38 0.38 0.0 0 0 749.99 146.36
  L 738.95 115.84
  Q 738.89 115.66 738.82 115.84
  L 727.77 146.37
  A 0.39 0.38 9.6 0 0 728.14 146.88
  Z"
/>
<path fill="#ffffff" d="
  M 805.62 113.99
  L 805.64 173.21
  A 0.48 0.48 0.0 0 1 805.16 173.69
  L 792.95 173.68
  A 0.48 0.48 0.0 0 1 792.47 173.20
  L 792.47 113.99
  A 0.48 0.48 0.0 0 0 791.99 113.51
  L 771.48 113.51
  A 0.48 0.48 0.0 0 1 771.00 113.03
  L 771.05 103.21
  A 0.48 0.48 0.0 0 1 771.53 102.73
  L 826.73 102.73
  A 0.48 0.48 0.0 0 1 827.21 103.21
  L 827.21 113.03
  A 0.48 0.48 0.0 0 1 826.73 113.51
  L 806.10 113.51
  A 0.48 0.48 0.0 0 0 805.62 113.99
  Z"
/>
<path fill="#ffffff" d="
  M 853.11 143.53
  L 853.13 162.63
  A 0.52 0.52 0.0 0 0 853.65 163.15
  L 884.21 163.12
  A 0.52 0.52 0.0 0 1 884.73 163.64
  L 884.77 173.16
  A 0.52 0.52 0.0 0 1 884.25 173.68
  L 840.39 173.67
  A 0.52 0.52 0.0 0 1 839.87 173.15
  L 839.87 103.25
  A 0.52 0.52 0.0 0 1 840.39 102.73
  L 884.22 102.73
  A 0.52 0.52 0.0 0 1 884.74 103.25
  L 884.76 112.73
  A 0.52 0.52 0.0 0 1 884.24 113.25
  L 853.65 113.24
  A 0.52 0.52 0.0 0 0 853.13 113.76
  L 853.13 132.34
  A 0.52 0.52 0.0 0 0 853.65 132.86
  L 877.50 132.79
  A 0.52 0.52 0.0 0 1 878.02 133.31
  L 878.02 142.51
  A 0.52 0.52 0.0 0 1 877.50 143.03
  L 853.63 143.01
  A 0.52 0.52 0.0 0 0 853.11 143.53
  Z"
/>
<path fill="#ffffff" d="
  M 275.25 144.99
  L 275.25 173.22
  Q 275.25 173.69 274.78 173.68
  L 266.20 173.65
  A 0.45 0.45 0.0 0 1 265.75 173.20
  L 265.75 103.76
  Q 265.75 103.33 266.19 103.32
  Q 276.19 103.20 285.98 103.25
  C 295.05 103.29 305.59 105.51 309.73 114.32
  C 315.42 126.44 308.22 139.10 295.26 142.40
  Q 294.81 142.51 295.09 142.89
  L 317.42 173.06
  A 0.44 0.43 -17.8 0 1 317.06 173.75
  Q 312.95 173.68 308.73 173.66
  C 306.76 173.66 305.47 171.52 304.32 169.95
  Q 295.53 157.86 286.72 145.77
  C 285.11 143.56 278.38 144.21 275.91 144.31
  Q 275.25 144.33 275.25 144.99
  Z
  M 275.27 110.98
  L 275.23 137.04
  A 0.25 0.25 0.0 0 0 275.48 137.29
  L 287.93 137.31
  A 14.28 12.29 0.1 0 0 302.23 125.04
  L 302.23 123.06
  A 14.28 12.29 0.1 0 0 287.97 110.75
  L 275.52 110.73
  A 0.25 0.25 0.0 0 0 275.27 110.98
  Z"
/>
<path fill="#ffffff" d="
  M 340.36 142.43
  L 340.30 165.50
  A 0.51 0.51 0.0 0 0 340.81 166.01
  L 373.89 165.99
  A 0.51 0.51 0.0 0 1 374.40 166.51
  L 374.31 173.17
  A 0.51 0.51 0.0 0 1 373.80 173.67
  L 331.37 173.67
  A 0.51 0.51 0.0 0 1 330.86 173.16
  L 330.88 103.78
  A 0.51 0.51 0.0 0 1 331.39 103.27
  L 373.76 103.27
  A 0.51 0.51 0.0 0 1 374.27 103.78
  L 374.27 110.63
  A 0.51 0.51 0.0 0 1 373.76 111.14
  L 340.84 111.11
  A 0.51 0.51 0.0 0 0 340.33 111.62
  L 340.36 133.98
  A 0.51 0.51 0.0 0 0 340.87 134.49
  L 367.36 134.47
  A 0.51 0.51 0.0 0 1 367.87 134.98
  L 367.93 141.48
  A 0.51 0.51 0.0 0 1 367.41 142.00
  L 340.87 141.92
  A 0.51 0.51 0.0 0 0 340.36 142.43
  Z"
/>
<path fill="#ffffff" d="
  M 399.39 154.86
  L 392.91 171.57
  A 3.32 3.31 -79.4 0 1 389.82 173.69
  L 383.22 173.69
  A 0.52 0.52 0.0 0 1 382.74 172.97
  L 410.41 103.79
  A 0.84 0.84 0.0 0 1 411.19 103.26
  L 419.76 103.26
  Q 420.19 103.26 420.34 103.65
  L 448.21 173.23
  A 0.33 0.32 -10.4 0 1 447.90 173.67
  L 440.75 173.69
  A 3.00 3.00 0.0 0 1 437.95 171.77
  L 431.38 154.92
  Q 431.19 154.41 430.64 154.41
  L 400.02 154.43
  Q 399.56 154.43 399.39 154.86
  Z
  M 415.42 113.07
  A 0.05 0.05 0.0 0 0 415.33 113.07
  Q 409.18 130.07 402.42 146.84
  A 0.58 0.58 0.0 0 0 402.96 147.63
  L 427.56 147.63
  Q 428.68 147.63 428.26 146.60
  Q 421.56 129.94 415.42 113.07
  Z"
/>
<path fill="#ffffff" d="
  M 471.02 165.74
  L 500.69 165.74
  A 0.48 0.48 0.0 0 1 501.17 166.22
  L 501.13 173.18
  A 0.48 0.48 0.0 0 1 500.65 173.66
  L 461.58 173.67
  A 0.48 0.48 0.0 0 1 461.10 173.19
  L 461.12 103.77
  A 0.48 0.48 0.0 0 1 461.60 103.29
  L 470.06 103.24
  A 0.48 0.48 0.0 0 1 470.54 103.72
  L 470.54 165.26
  A 0.48 0.48 0.0 0 0 471.02 165.74
  Z"
/>
<path fill="#d6b196" d="
  M 28.31 234.45
  L 70.08 234.47
  A 0.68 0.68 0.0 0 1 70.76 235.15
  L 70.75 253.62
  A 0.68 0.68 0.0 0 1 70.07 254.30
  L 8.44 254.28
  A 0.68 0.68 0.0 0 1 7.76 253.60
  L 7.78 142.94
  A 0.68 0.68 0.0 0 1 8.46 142.26
  L 26.99 142.24
  A 0.68 0.68 0.0 0 1 27.67 142.92
  L 27.63 233.77
  A 0.68 0.68 0.0 0 0 28.31 234.45
  Z"
/>
<path fill="#d6b196" d="
  M 137.70 234.40
  L 200.65 234.49
  A 0.84 0.84 0.0 0 0 201.49 233.65
  L 201.49 143.15
  A 0.84 0.84 0.0 0 1 202.33 142.31
  L 220.51 142.22
  A 0.84 0.84 0.0 0 1 221.35 143.06
  L 221.27 253.45
  A 0.84 0.84 0.0 0 1 220.43 254.29
  L 117.85 254.27
  A 0.84 0.84 0.0 0 1 117.01 253.43
  L 117.00 192.94
  A 0.84 0.84 0.0 0 0 116.16 192.10
  L 71.63 192.13
  A 0.84 0.84 0.0 0 1 70.79 191.29
  L 70.74 173.09
  A 0.84 0.84 0.0 0 1 71.58 172.25
  L 135.98 172.27
  A 0.84 0.84 0.0 0 1 136.82 173.11
  L 136.86 233.56
  A 0.84 0.84 0.0 0 0 137.70 234.40
  Z"
/>
</svg>
